{"title":"The.Frontier.Boys.2012.DVDRiP.AC3.XViD-INSPiRAL","uid":7103876,"size":1474568587,"categoryP":"video","categoryS":"movies","magnet":"?xt=urn:btih:26b0f14484488a5f414c74bb44ca2cfe24a1f025&amp;dn=The.Frontier.Boys.2012.DVDRiP.AC3.XViD-INSPiRAL&amp;tr=udp%3A%2F%2Ftracker.openbittorrent.com%3A80&amp;tr=udp%3A%2F%2Fopen.demonii.com%3A1337&amp;tr=udp%3A%2F%2Ftracker.coppersurfer.tk%3A6969&amp;tr=udp%3A%2F%2Fexodus.desync.com%3A6969","seeders":1,"leechers":0,"uploader":"MisterNobody","files":3,"time":1331796679,"description":"TITLE:\n \nThe Frontier Boys 2012 DVDRiP AC3 XViD - INSPiRAL\n \nIMDB:\n  &lt;a href=&quot;\nhttp://www.imdb.com/title/tt1613056/&quot; rel=&quot;nofollow&quot; target=&quot;_NEW&quot;&gt;\nhttp://www.imdb.com/title/tt1613056/&lt;/a&gt;\n \n \nSOURCES:\n \nVIDEO - THE_FRONTIER_BOYS.ISO HK INC THANKS\nAUDIO - THE_FRONTIER_BOYS.ISO HK INC THANKS\nSUBS  - None Add\n \nSTATS:\n \nVideo\nID                                       : 0\nFormat                                   : MPEG-4 Visual\nFormat profile                           : Advanced Simple@L5\nFormat settings, BVOP                    : 2\nFormat settings, QPel                    : No\nFormat settings, GMC                     : No warppoints\nFormat settings, Matrix                  : Default (MPEG)\nMuxing mode                              : Packed bitstream\nCodec ID                                 : XVID\nCodec ID/Hint                            : XviD\nDuration                                 : 1h 52mn\nBit rate                                 : 1 279 Kbps\nWidth                                    : 720 pixels\nHeight                                   : 304 pixels\nDisplay aspect ratio                     : 2.35:1\nFrame rate                               : 23.976 fps\nColor space                              : YUV\nChroma subsampling                       : 4:2:0\nBit depth                                : 8 bits\nScan type                                : Progressive\nCompression mode                         : Lossy\nBits/(Pixel*Frame)                       : 0.244\nStream size                              : 1.00 GiB (74%)\nWriting library                          : XviD 64\n \nAudio\nID                                       : 1\nFormat                                   : AC-3\nFormat/Info                              : Audio Coding 3\nMode extension                           : CM (complete main)\nCodec ID                                 : 2000\nDuration                                 : 1h 52mn\nBit rate mode                            : Constant\nBit rate                                 : 448 Kbps\nChannel(s)                               : 6 channels\nChannel positions                        : Front: L C R, Side: L R, LFE\nSampling rate                            : 48.0 KHz\nBit depth                                : 16 bits\nCompression mode                         : Lossy\nStream size                              : 359 MiB (26%)\nAlignment                                : Aligned on interleaves\nInterleave, duration                     : 42 ms (1.00 video frame)\nInterleave, preload duration             : 512 ms\n \n \n \nNOTES:\n \nSimple right from the iso file,but done the right way ....Audio just remuxed to our rip.\n \n \nSCREENS:\n \n[IMG]http://i.imgur.com/04paN.png[/IMG]\n[IMG]http://i.imgur.com/zOcIG.png[/IMG]\n[IMG]http://i.imgur.com/wcHvP.png[/IMG]\n[IMG]http://i.imgur.com/e11ek.png[/IMG]\n \n \nGREETZ:\n \nPast,Present and Future","torrent":{"xt":"urn:btih:26b0f14484488a5f414c74bb44ca2cfe24a1f025","amp;dn":"The.Frontier.Boys.2012.DVDRiP.AC3.XViD-INSPiRAL","amp;tr":["udp%3A%2F%2Ftracker.openbittorrent.com%3A80","udp%3A%2F%2Fopen.demonii.com%3A1337","udp%3A%2F%2Ftracker.coppersurfer.tk%3A6969","udp%3A%2F%2Fexodus.desync.com%3A6969"],"infoHash":"26b0f14484488a5f414c74bb44ca2cfe24a1f025","infoHashBuffer":{"type":"Buffer","data":[38,176,241,68,132,72,138,95,65,76,116,187,68,202,44,254,36,161,240,37]},"announce":[],"urlList":[]}}